<?xml version="1.0" standalone="no"?>
<!DOCTYPE svg PUBLIC "-//W3C//DTD SVG 1.1//EN" "http://www.w3.org/Graphics/SVG/1.1/DTD/svg11.dtd" >
<svg xmlns="http://www.w3.org/2000/svg">
<metadata></metadata>
<defs>
<font id="OpenSymbolRegular" horiz-adv-x="681" >
<font-face units-per-em="2048" ascent="1638" descent="-410" />
<missing-glyph horiz-adv-x="1024" />
<glyph unicode="&#x2e;&#x2e;&#x2e;" horiz-adv-x="1949" d="M160 94.5q0 44.5 32 77.5t77.5 33t78.5 -33t33 -79t-31 -78.5t-78.5 -32.5t-79.5 34t-32 78.5zM842 94q0 45 33.5 78t78.5 33q109 0 109 -111q0 -46 -32 -79t-77 -33t-78.5 33.5t-33.5 78.5zM1526 94.5q0 44.5 32 77.5t77.5 33t78.5 -33t33 -79.5t-31.5 -78.5t-78.5 -32 t-79 34t-32 78.5z" />
<glyph horiz-adv-x="2048" />
<glyph horiz-adv-x="2048" />
<glyph horiz-adv-x="1024" />
<glyph unicode="&#xd;" horiz-adv-x="1024" />
<glyph unicode=" "  horiz-adv-x="1024" />
<glyph unicode="&#x09;" horiz-adv-x="1024" />
<glyph unicode="&#xa0;" horiz-adv-x="1024" />
<glyph unicode="!" horiz-adv-x="606" d="M186 1247q0 55 31 97t84 42q113 0 113 -149q0 -175 -35 -440l-60 -439h-38l-60 445q-35 269 -35 444zM188 83q0 43 34 76.5t77 33.5t77 -33.5t34 -77.5t-33 -77.5t-77.5 -33.5t-78.5 34q-33 35 -33 78z" />
<glyph unicode="&#x22;" horiz-adv-x="727" d="M94 1227v239h205v-239q0 -69 -45 -281h-111l-32 139q-17 85 -17 142zM426 1227v239h205v-239q0 -48 -47 -281h-109l-33 139q-16 80 -16 142z" />
<glyph unicode="#" horiz-adv-x="1138" d="M20 401v150h199l74 362h-273v150h304l88 428h147l-86 -428h315l89 428h149l-88 -428h174v-150h-203l-75 -362h278v-150h-307l-86 -426h-152l86 426h-313l-86 -426h-152l86 426h-168zM369 551h315l74 362h-314z" />
<glyph unicode="%" horiz-adv-x="1705" d="M0 1017.5q0 142.5 76.5 255.5t214.5 113t211 -110t73 -257t-72.5 -256.5t-211 -109.5t-215 111t-76.5 253.5zM160 1018q0 -313 129 -313t129 313t-129 313t-129 -313zM244 -55l987 1441h90l-989 -1441h-88zM987 309q0 141 76.5 253t214 112t211.5 -112.5t74 -254.5 t-74 -252t-210.5 -110t-214 111.5t-77.5 252.5zM1147 310.5q0 -310.5 129 -310.5t129 310.5t-129 310.5t-129 -310.5z" />
<glyph unicode="&#x26;" horiz-adv-x="1593" d="M0 268q0 274 416 490q-82 180 -82 314t97 224t232.5 90t212 -65.5t76.5 -177.5q0 -199 -329 -361q142 -245 264 -413q176 211 176 352q0 114 -92 115v36h420v-36q-78 -9 -129 -37q-30 -15 -172 -243t-156 -247q159 -186 301 -186t184 147l37 -26q-69 -275 -309 -275 q-172 0 -352 195q-227 -195 -437 -195q-147 0 -252.5 78.5t-105.5 220.5zM207 358q0 -117 69.5 -192.5t188 -75.5t278.5 131q-215 296 -294 469q-242 -133 -242 -332zM504 1122.5q0 -86.5 84 -274.5q248 117 248 299q0 69 -44 118q-45 48 -117 48t-121.5 -52t-49.5 -138.5z " />
<glyph unicode="(" horiz-adv-x="696" d="M172 645.5q0 792.5 401 1121.5v-51q-292 -288 -292 -1079t292 -1071v-49q-401 336 -401 1128.5z" />
<glyph unicode=")" horiz-adv-x="696" d="M123 -434q293 282 293 1069.5t-293 1080.5v51q219 -174 319 -514q82 -268 82 -612q0 -798 -401 -1124v49z" />
<glyph unicode="*" horiz-adv-x="796" d="M63 1196l48 143q87 -30 229 -98q-4 70 -21 250h148q-1 -97 -25 -248q100 51 238 96l45 -143q-121 -38 -250 -55q54 -46 172 -189l-119 -86q-79 111 -137 215q-58 -99 -131 -215l-119 86q62 80 166 189q-90 16 -244 55z" />
<glyph unicode="+" horiz-adv-x="1196" d="M115 516v168h397v399h170v-399h399v-168h-399v-401h-170v401h-397z" />
<glyph unicode="," horiz-adv-x="512" d="M111 82q0 50 39 84.5t102 34.5t109.5 -66.5t46.5 -144.5q0 -233 -297 -332v45q91 32 153 99.5t62 156.5l-9 33l-14 8l-86 -29q-106 0 -106 111z" />
<glyph unicode="-" d="M66 502v180h552v-180h-552z" />
<glyph unicode="." horiz-adv-x="512" d="M145 84.5q0 44.5 33 77.5t78 33t78 -33t33 -78.5t-33 -79t-77.5 -33.5t-78.5 34q-33 35 -33 79.5z" />
<glyph unicode="/" horiz-adv-x="569" d="M0 -25l426 1516h143l-424 -1516h-145z" />
<glyph unicode=":" horiz-adv-x="569" d="M176 84.5q0 44.5 33 77.5t78 33t78.5 -33t33.5 -78.5t-33.5 -79t-78 -33.5t-78.5 34q-33 35 -33 79.5zM178 834.5q0 45.5 33 77.5t78 32t77.5 -32.5t32.5 -77t-32 -78.5q-33 -33 -78 -33t-78 33t-33 78.5z" />
<glyph unicode=";" horiz-adv-x="569" d="M141 82q0 50 39.5 84.5t89.5 34.5q79 0 124.5 -64t45.5 -147q0 -233 -299 -332v45q92 31 154.5 98t62.5 158q0 31 -22 41l-86 -29q-109 0 -109 111zM170 836q0 45 33 76.5t78 31.5t78.5 -32t33.5 -76.5t-32.5 -77.5t-78 -33t-79 33t-33.5 78z" />
<glyph unicode="&#x3c;" horiz-adv-x="1196" d="M113 518v168l970 410v-178l-770 -316l770 -319v-181z" />
<glyph unicode="=" horiz-adv-x="1628" d="M221 293v116h1184v-116h-1184zM221 791v129h1184v-129h-1184z" />
<glyph unicode="&#x3e;" horiz-adv-x="1196" d="M113 102v181l768 319l-768 316v178l970 -410v-168z" />
<glyph unicode="[" horiz-adv-x="577" d="M150 -403v2025h354v-41h-256v-1941h256v-43h-354z" />
<glyph unicode="]" horiz-adv-x="577" d="M74 -360h256v1941h-256v41h354v-2025h-354v43z" />
<glyph unicode="{" horiz-adv-x="782" d="M92 588v33l37 2q88 15 88 129l-2 604q0 138 72.5 220.5t208.5 82.5v-33l-46 -3l-37 -10q-115 -44 -118 -229l-8 -575q-3 -142 -131 -205q128 -61 131 -207l8 -573q4 -242 196 -244h5v-33h-11q-134 0 -204 91q-66 81 -66 217l2 604q0 128 -125 129z" />
<glyph unicode="}" horiz-adv-x="782" d="M92 -420l46 3q155 26 155 241l-12 575q0 136 133 205q-133 63 -133 205l12 577q0 240 -201 240v33h10q132 0 201.5 -85t69.5 -207t-12.5 -318.5t-12.5 -296.5q0 -131 132 -131h16v-33l-44 -2q-104 -14 -104 -122t12.5 -305t12.5 -304q0 -308 -281 -308v33z" />
<glyph unicode="~" horiz-adv-x="1628" d="M221 526q15 320 264 320q115 0 358 -120t333 -120q144 0 167 217h62q-18 -319 -264 -319q-127 0 -346.5 119.5t-345.5 119.5q-79 0 -122.5 -67t-43.5 -150h-62z" />
<glyph unicode="&#xa2;" horiz-adv-x="876" d="M55 483.5q0 191.5 97.5 344t273.5 184.5v231h82v-225q24 4 47 4q95 0 172.5 -60.5t77.5 -150.5q0 -41 -23 -76t-61 -35q-47 0 -111.5 111.5t-101.5 128.5v-786q198 0 303 229l45 -14q-73 -170 -127 -242q-91 -123 -221 -141v-230h-82v230q-185 17 -278 161.5t-93 336z M221 563q0 -127 49.5 -240t155.5 -157v774q-106 -24 -162 -147q-43 -103 -43 -230z" />
<glyph unicode="&#xa4;" horiz-adv-x="1024" d="M27 254l143 143q-100 116 -100 278.5t100 287.5l-143 141l57 57l145 -141q119 100 283 100t283 -100l143 141l57 -57l-143 -141q102 -132 102 -283t-102 -283l143 -143l-57 -55l-143 143q-134 -104 -271 -104q-197 0 -295 104l-145 -143zM150 678q0 -150 107 -255.5 t254.5 -105.5t255 107.5t107.5 255.5t-107 254t-256 106t-255 -106t-106 -256z" />
<glyph unicode="&#xa5;" horiz-adv-x="1024" d="M2 352v74h424v143l-14 35h-410v74h377l-213 496q-62 143 -164 145v37h442v-37q-120 -5 -120 -64q0 -45 231 -577q233 512 233 579q0 53 -110 62v37h346v-37q-105 0 -174 -156l-213 -485h387v-74h-420l-6 -14v-164h426v-74h-426v-108q0 -120 26.5 -161.5t135.5 -41.5h8 v-41h-514v41l53 3q52 6 87.5 36.5t35.5 120.5l-4 151h-424z" />
<glyph unicode="&#xa7;" horiz-adv-x="1138" d="M80 643q0 -163 184 -305l346 -217q185 -122 185 -225q0 -84 -64.5 -129.5t-150.5 -45.5q-208 0 -256 236l-183 -27q23 -176 140.5 -268t288 -92t289 87t118.5 242.5t-160 278.5q227 90 227 287q0 153 -180 291l-332 209q-180 115 -180 219q0 72 64.5 115.5t140.5 43.5 q182 0 215 -219l186 21q-40 346 -415 346q-145 0 -256 -87t-111 -223t129 -253q-97 -28 -161 -106.5t-64 -178.5zM244 664q0 114 149 194q226 -141 285 -184q196 -145 196 -244q0 -116 -147 -186q-212 126 -287 180q-196 144 -196 240z" />
<glyph unicode="&#xa8;" horiz-adv-x="542" d="M25 1375.5q0 39.5 28 70.5q29 31 69 31t69.5 -30t29.5 -72t-28.5 -69.5t-70 -27.5t-70.5 29q-27 29 -27 68.5zM319 1377.5q0 38.5 29 70t69.5 31.5t69.5 -30t29 -72.5t-28.5 -69.5t-70 -27t-70.5 29q-28 30 -28 68.5z" />
<glyph unicode="&#xab;" horiz-adv-x="1138" d="M133 528l320 -456h145l-258 456l260 455h-147zM524 528l316 -456h151l-264 456l264 455h-151z" />
<glyph unicode="&#xac;" horiz-adv-x="1329" d="M117 727v74h1003l2 -529h-94v455h-911z" />
<glyph unicode="&#xad;" horiz-adv-x="1628" d="M221 543v98h1184v-98h-1184z" />
<glyph unicode="&#xb0;" horiz-adv-x="872" d="M131 592q0 132 82.5 214.5t213 82.5t213.5 -83t83 -213t-83 -213t-214 -83t-213 81.5t-82 213.5zM180 591.5q0 -109.5 69 -177.5t177.5 -68t178 68t69.5 177.5t-70 179t-177.5 69.5t-177 -69.5t-69.5 -179z" />
<glyph unicode="&#xb1;" horiz-adv-x="1628" d="M221 0v98h1186v-98h-1186zM221 692v99h545v393h98v-393h543v-99h-543v-395h-98v395h-545z" />
<glyph unicode="&#xb6;" horiz-adv-x="1099" d="M0 1059q0 193 131 300t342 107h635v-174h-145v-1700h-170v1700h-224v-1700h-163v1047q-180 7 -293 117t-113 303z" />
<glyph unicode="&#xbb;" horiz-adv-x="1138" d="M139 72h152l313 456l-313 455h-152l264 -455zM528 983l263 -455l-261 -456h148l319 456l-319 455h-150z" />
<glyph unicode="&#xbf;" horiz-adv-x="909" d="M88 296.5q0 134.5 88 262.5l166 221q92 139 98 277h39q-3 -125 -106 -361.5t-103 -361.5t62 -206t176 -81q70 0 128 33.5t58 97.5q0 32 -30.5 84.5t-30.5 85t23 58.5q24 24 67 24t71.5 -47.5t28.5 -103.5q0 -137 -116 -220q-106 -71 -250 -71t-256.5 87t-112.5 221.5z M342 1293.5q0 45.5 33 78.5t78 33t77.5 -33t32.5 -78.5t-32.5 -77.5t-77.5 -32t-78 32t-33 77.5z" />
<glyph unicode="&#xd7;" horiz-adv-x="1628" d="M221 70l522 522l-522 522l72 70l520 -522l524 522l68 -70l-522 -522l522 -522l-68 -70l-524 522l-520 -522z" />
<glyph unicode="&#xf7;" horiz-adv-x="1628" d="M221 543v98h1186v-98h-1186zM715 98v197h198v-197h-198zM715 887v198h198v-198h-198z" />
<glyph unicode="&#x152;" horiz-adv-x="2058" d="M27 740.5q0 318.5 183.5 523t514.5 204.5l109 -16h970l27 -326h-47q-39 181 -162 226q-60 22 -225.5 22t-192.5 -6q-76 -17 -76 -84v-401q0 -64 50 -64h325q79 0 122 67t44 150h47v-524h-37q-16 98 -45 145q-41 68 -127 68h-301q-78 0 -78 -74v-469q0 -94 89 -94h342 q149 0 231 82q64 63 125 217h43l-103 -387h-1003l-207 -23q-293 0 -465 234q-153 211 -153 529.5zM272 741q0 -245 78 -428q107 -250 338 -250q89 0 153 55.5t64 143.5v899q0 225 -243 225q-196 0 -306 -225q-84 -175 -84 -420z" />
<glyph unicode="&#x153;" horiz-adv-x="1748" d="M25 494.5q0 216.5 131 373t342 156.5q123 0 209.5 -50.5t169.5 -158.5q107 213 342 213q169 0 276.5 -125.5t110.5 -298.5h-641q8 -440 305 -440q226 0 323 235h58q-117 -411 -414 -411q-259 0 -358 229q-54 -105 -159 -168t-224 -63q-216 0 -343.5 146t-127.5 362.5z M223 518q0 -158 60 -282q75 -164 223 -164v-2l41 3q110 18 165.5 143.5t55.5 289t-61 285.5q-77 155 -217 155t-211 -149q-56 -121 -56 -279zM969 676h434q-6 248 -211 248q-188 0 -223 -248z" />
<glyph unicode="&#x178;" horiz-adv-x="1488" d="M-49 1415v41q555 0 633 2v-35q-152 0 -152 -86q0 -35 338 -579q344 533 344 597.5t-145 65.5l2 39q109 -8 225.5 -8t245.5 10v-45q-115 0 -250 -162q-96 -110 -221 -333l-160 -291v-441q0 -139 211 -149v-41q-171 5 -335 5l-275 -4l-37 -1v41q85 0 147 42.5t62 123.5 l-2 430q-39 51 -165 287.5t-208 337.5q-129 153 -258 153zM317 1722q0 47 37 81t82 34l-2 2q51 0 87 -33.5t36 -81.5t-35 -84t-83.5 -36t-85.5 35q-36 36 -36 83zM801 1727q0 47 43 78.5t89 31.5t76.5 -33.5t30.5 -80t-40 -82t-89 -35.5t-80 36q-30 38 -30 85z" />
<glyph unicode="&#x2c6;" d="M33 1112l329 379l304 -379l-35 -2l-271 211l-284 -219z" />
<glyph unicode="&#x2dc;" d="M23 1217q7 258 188 258q46 0 324 -140q69 0 96 140h31v-13q0 -94 -49.5 -172t-141.5 -78q-61 0 -324 142q-67 0 -94 -137h-30z" />
<glyph unicode="&#x2000;" horiz-adv-x="919" />
<glyph unicode="&#x2001;" horiz-adv-x="1839" />
<glyph unicode="&#x2002;" horiz-adv-x="919" />
<glyph unicode="&#x2003;" horiz-adv-x="1839" />
<glyph unicode="&#x2004;" horiz-adv-x="613" />
<glyph unicode="&#x2005;" horiz-adv-x="459" />
<glyph unicode="&#x2006;" horiz-adv-x="306" />
<glyph unicode="&#x2007;" horiz-adv-x="306" />
<glyph unicode="&#x2008;" horiz-adv-x="229" />
<glyph unicode="&#x2009;" horiz-adv-x="367" />
<glyph unicode="&#x200a;" horiz-adv-x="102" />
<glyph unicode="&#x2010;" d="M66 502v180h552v-180h-552z" />
<glyph unicode="&#x2011;" d="M66 502v180h552v-180h-552z" />
<glyph unicode="&#x2012;" d="M66 502v180h552v-180h-552z" />
<glyph unicode="&#x2013;" horiz-adv-x="1138" d="M-4 459h1139v147h-1139v-147z" />
<glyph unicode="&#x2014;" horiz-adv-x="2048" d="M0 459h2048v147h-2048v-147z" />
<glyph unicode="&#x2018;" horiz-adv-x="481" d="M82 1138q0 102 88 215t195 113l8 -16l-127 -121q-68 -78 -68 -142.5t37 -94.5q43 30 86 30t74 -38.5t31 -84.5t-37 -76t-86 -30q-93 0 -147 71.5t-54 173.5z" />
<glyph unicode="&#x2019;" horiz-adv-x="481" d="M94 1357q0 49 38.5 80t86.5 31q89 0 143 -82q50 -71 50 -175t-91 -211t-206 -107l-15 12q21 37 83.5 74t80.5 57q41 46 41 105.5t-22 118.5q-36 -21 -75 -21t-76.5 34.5t-37.5 83.5z" />
<glyph unicode="&#x201a;" horiz-adv-x="481" d="M76 81.5q0 45.5 36.5 78.5t86.5 33q89 0 144.5 -70.5t55.5 -170.5t-92 -217.5t-194 -117.5l-9 16q103 89 129 119q66 76 66 156q0 46 -31 80q-40 -25 -86 -25l-2 -2q-43 0 -74 37q-30 38 -30 83.5z" />
<glyph unicode="&#x201c;" horiz-adv-x="827" d="M51 1153q0 128 99 222.5t227 94.5l10 -4l6 -8l-4 -10q-233 -116 -233 -258q0 -34 18 -72q44 25 82 25t69 -37q29 -38 29 -82q0 -115 -121 -115q-85 0 -133.5 77t-48.5 167zM461 1152q0 107 84 212.5t205 105.5l30 -6l8 -8l-4 -8q-107 -62 -145 -100q-72 -70 -72 -156 q0 -21 19 -74q28 14 82 25q42 -1 73 -34t31 -81t-42 -86q-43 -37 -97 -37q-82 0 -127 70t-45 177z" />
<glyph unicode="&#x201d;" horiz-adv-x="827" d="M20 915l17 21q83 30 137 88q66 66 66 145l-2 -2q0 37 -19 84q-35 -20 -76.5 -20t-74.5 34.5t-33 81.5t39 82t90 35q86 0 138 -66t52 -172t-92 -215.5t-209 -109.5zM420 920l145 102q80 60 80 147q0 45 -10 78q-114 -34 -160 21q-29 35 -29 81.5t40 80.5q41 32 89 32 q85 0 130 -70.5t45 -160.5q0 -125 -92 -226.5t-216 -101.5z" />
<glyph unicode="&#x201e;" horiz-adv-x="827" d="M2 -346q129 90 148 106q77 72 77 156q0 40 -12 78q-48 -23 -86.5 -23t-68.5 36q-29 37 -29 82t39.5 82.5t87.5 37.5q90 0 136 -70.5t46 -182.5t-92 -214t-219 -102zM406 -346q30 31 99.5 76.5t94.5 76.5q43 49 43 119q0 33 -10 66q-39 -21 -85 -21t-72.5 40.5t-26.5 89 t35 78.5t81 30q86 0 136.5 -76t50.5 -166q0 -128 -98 -227.5t-224 -99.5l-22 6z" />
<glyph unicode="&#x2022;" horiz-adv-x="729" d="M74 722.5q0 110.5 81 188.5t190.5 78t186 -78t76.5 -189t-75.5 -188t-186 -77t-191.5 77.5t-81 188z" />
<glyph unicode="&#x202f;" horiz-adv-x="367" />
<glyph unicode="&#x2039;" d="M119 465l387 469h57l-244 -469l244 -473h-57z" />
<glyph unicode="&#x203a;" d="M115 -8l243 471l-243 471h57l395 -471l-395 -471h-57z" />
<glyph unicode="&#x205f;" horiz-adv-x="459" />
<glyph unicode="&#x20ac;" horiz-adv-x="1566" d="M-2 526l80 176h141v62h-219l66 174h172q75 238 246.5 393.5t406.5 155.5q286 0 594 -227l-99 -170q-284 219 -495 219q-160 0 -289 -105t-188 -262h919l-86 -178h-866v-64h850l-86 -174h-733q48 -159 181.5 -265.5t297.5 -106.5q235 0 514 233v-211q-225 -201 -508 -201 q-234 0 -416 159t-235 392h-248z" />
<glyph unicode="&#x2122;" horiz-adv-x="2048" d="M225 1343h262v-694h138v694h266v123h-666v-123zM983 649h125v694l217 -694h125l209 684v-684h125v817h-197l-198 -651l-207 651h-199v-817z" />
<glyph unicode="&#xe000;" horiz-adv-x="500" d="M0 0z" />
</font>
</defs>
</svg>
